HIERARCHY
ROOT Hips
{
	OFFSET 0.00000 0.00000 0.00000
	CHANNELS 6 Xposition Yposition Zposition Zrotation Yrotation Xrotation 
	JOINT LHipJoint
	{
		OFFSET 0 0 0
		CHANNELS 3 Zrotation Yrotation Xrotation
		JOINT LeftUpLeg
		{
			OFFSET 1.70593 -1.62653 0.87602
			CHANNELS 3 Zrotation Yrotation Xrotation
			JOINT LeftLeg
			{
				OFFSET 2.32330 -6.38322 0.00000
				CHANNELS 3 Zrotation Yrotation Xrotation
				JOINT LeftFoot
				{
					OFFSET 2.45016 -6.73177 0.00000
					CHANNELS 3 Zrotation Yrotation Xrotation
					JOINT LeftToeBase
					{
						OFFSET 0.13029 -0.35798 1.96980
						CHANNELS 3 Zrotation Yrotation Xrotation
						End Site
						{
							OFFSET 0.00000 -0.00000 1.01270
						}
					}
				}
			}
		}
	}
	JOINT RHipJoint
	{
		OFFSET 0 0 0
		CHANNELS 3 Zrotation Yrotation Xrotation
		JOINT RightUpLeg
		{
			OFFSET -1.80599 -1.62652 0.87602
			CHANNELS 3 Zrotation Yrotation Xrotation
			JOINT RightLeg
			{
				OFFSET -2.45375 -6.74162 0.00000
				CHANNELS 3 Zrotation Yrotation Xrotation
				JOINT RightFoot
				{
					OFFSET -2.45828 -6.75406 0.00000
					CHANNELS 3 Zrotation Yrotation Xrotation
					JOINT RightToeBase
					{
						OFFSET -0.13801 -0.37917 1.88456
						CHANNELS 3 Zrotation Yrotation Xrotation
						End Site
						{
							OFFSET -0.00000 -0.00000 0.97281
						}
					}
				}
			}
		}
	}
	JOINT LowerBack
	{
		OFFSET 0 0 0
		CHANNELS 3 Zrotation Yrotation Xrotation
		JOINT Spine
		{
			OFFSET 0.01003 2.00576 -0.14267
			CHANNELS 3 Zrotation Yrotation Xrotation
			JOINT Spine1
			{
				OFFSET 0.00908 2.01191 0.01660
				CHANNELS 3 Zrotation Yrotation Xrotation
				JOINT Neck
				{
					OFFSET 0 0 0
					CHANNELS 3 Zrotation Yrotation Xrotation
					JOINT Neck1
					{
						OFFSET -0.05849 1.60301 0.18934
						CHANNELS 3 Zrotation Yrotation Xrotation
						JOINT Head
						{
							OFFSET 0.01775 1.59435 -0.07960
							CHANNELS 3 Zrotation Yrotation Xrotation
							End Site
							{
								OFFSET 0.01210 1.70732 -0.05248
							}
						}
					}
				}
				JOINT LeftShoulder
				{
					OFFSET 0 0 0
					CHANNELS 3 Zrotation Yrotation Xrotation
					JOINT LeftArm
					{
						OFFSET 3.15315 1.26460 0.30667
						CHANNELS 3 Zrotation Yrotation Xrotation
						JOINT LeftForeArm
						{
							OFFSET 4.97694 -0.00000 -0.00000
							CHANNELS 3 Zrotation Yrotation Xrotation
							JOINT LeftHand
							{
								OFFSET 3.14391 -0.00000 -0.00000
								CHANNELS 3 Zrotation Yrotation Xrotation
								JOINT LeftFingerBase
								{
									OFFSET 0 0 0
									CHANNELS 3 Zrotation Yrotation Xrotation
									JOINT LeftHandIndex1
									{
										OFFSET 0.59358 -0.00000 -0.00000
										CHANNELS 3 Zrotation Yrotation Xrotation
										End Site
										{
											OFFSET 0.47856 -0.00000 -0.00000
										}
									}
								}
								JOINT LThumb
								{
									OFFSET 0 0 0
									CHANNELS 3 Zrotation Yrotation Xrotation
									End Site
									{
										OFFSET 0.48587 -0.00000 0.48587
									}
								}
							}
						}
					}
				}
				JOINT RightShoulder
				{
					OFFSET 0 0 0
					CHANNELS 3 Zrotation Yrotation Xrotation
					JOINT RightArm
					{
						OFFSET -3.25568 1.35581 0.18982
						CHANNELS 3 Zrotation Yrotation Xrotation
						JOINT RightForeArm
						{
							OFFSET -4.90473 -0.00000 0.00000
							CHANNELS 3 Zrotation Yrotation Xrotation
							JOINT RightHand
							{
								OFFSET -3.21621 0.00006 -0.00004
								CHANNELS 3 Zrotation Yrotation Xrotation
								JOINT RightFingerBase
								{
									OFFSET 0 0 0
									CHANNELS 3 Zrotation Yrotation Xrotation
									JOINT RightHandIndex1
									{
										OFFSET -0.62353 -0.00000 -0.00000
										CHANNELS 3 Zrotation Yrotation Xrotation
										End Site
										{
											OFFSET -0.50270 -0.00000 -0.00000
										}
									}
								}
								JOINT RThumb
								{
									OFFSET 0 0 0
									CHANNELS 3 Zrotation Yrotation Xrotation
									End Site
									{
										OFFSET -0.51038 -0.00000 0.51038
									}
								}
							}
						}
					}
				}
			}
		}
	}
}
MOTION
Frames: 13
Frame Time: .0083333
8.8500 16.2286 -3.1727 -1.6482 1.1797 5.6171 0.0000 0.0000 0.0000 -18.6379 -1.8074 -17.2781 12.9309 18.7571 68.9107 -0.0239 5.1803 2.7917 0.8267 -5.8008 -16.2076 0.0000 0.0000 0.0000 24.6416 12.1685 -26.6002 -4.1251 -12.3251 36.8919 -0.1585 11.4778 -10.1775 -0.0363 -1.2304 3.3829 2.6869 1.8623 2.0552 2.2016 2.6304 -1.5631 0.6428 1.2830 -2.7418 -2.6516 -1.8527 -9.7622 2.3041 -2.4186 12.4877 0.9722 -1.1422 5.4279 -0.0000 0.0000 0.0000 -89.8631 -2.0988 36.1165 20.7124 -31.4912 -5.8990 -0.0000 0.0000 -20.4091 21.3620 -12.6765 -4.9058 -7.1250 0.0000 -0.0000 -4.0895 16.4240 2.7735 -0.0000 0.0000 0.0000 93.4543 -7.5987 -9.8279 -8.9174 15.0287 -1.1786 0.0000 0.0000 15.6150 -29.0902 -34.8718 17.6459 7.1250 -0.0000 -0.0000 5.6955 -68.4722 -3.2122
8.8520 16.2704 -2.9280 -1.8651 1.1803 5.8602 0.0000 0.0000 0.0000 -18.1959 -2.3170 -19.5079 13.1316 18.8292 69.5337 -0.0568 4.9794 0.9926 0.9511 -6.2105 -17.3965 0.0000 0.0000 0.0000 25.0478 11.9702 -25.6180 -4.0251 -12.1937 36.4208 -0.1779 11.8127 -10.5961 -0.0335 -1.1809 3.2467 2.7323 1.9427 1.8625 2.2504 2.7366 -1.6873 0.6679 1.3350 -2.7611 -2.7366 -1.9061 -9.6963 2.3226 -2.4879 12.8549 0.9865 -1.1785 5.5345 0.0000 0.0000 0.0000 -90.1820 -0.9926 35.2527 19.2582 -29.7382 -5.1583 -0.0000 0.0000 -19.2390 21.7686 -12.7192 -5.0247 -7.1250 0.0000 -0.0000 -3.8097 16.3391 2.5898 0.0000 0.0000 0.0000 93.0732 -6.6026 -5.2798 -9.4600 15.8905 -1.3232 0.0000 0.0000 11.8014 -28.7036 -36.5571 18.0634 7.1250 -0.0000 -0.0000 7.7687 -70.0500 -4.6614
8.8559 16.3055 -2.6799 -2.0526 1.1196 5.9819 0.0000 0.0000 0.0000 -17.7108 -2.8275 -21.5282 13.2255 18.8621 69.8245 -0.0741 4.9653 -0.5578 0.4079 -4.1000 -11.3581 0.0000 0.0000 0.0000 25.4470 11.8205 -24.4454 -3.9372 -12.0764 36.0027 -0.2139 12.1113 -11.1778 -0.0226 -0.9707 2.6682 2.8124 2.0403 1.7028 2.2482 2.8664 -1.8006 0.6198 1.3975 -2.7833 -2.5766 -1.8791 -9.3209 2.1600 -2.4609 12.8401 0.9147 -1.1716 5.4613 0.0000 -0.0000 0.0000 -90.4373 0.2153 34.1847 18.0422 -28.2112 -4.5692 -0.0000 0.0000 -17.8535 21.5476 -11.8035 -4.6179 -7.1250 0.0000 -0.0000 -3.9284 17.3356 2.5856 0.0000 -0.0000 0.0000 92.7786 -5.6886 -1.0436 -10.0358 16.7955 -1.4853 0.0000 0.0000 8.6484 -29.1789 -35.2065 17.8449 7.1250 -0.0000 -0.0000 5.8526 -68.8403 -3.3496
8.8627 16.3353 -2.4329 -1.9351 1.0761 5.9921 0.0000 0.0000 0.0000 -17.5834 -3.3046 -23.3101 13.2349 18.8653 69.8535 -0.0714 4.7466 -2.1149 0.0565 -1.5340 -4.2195 0.0000 0.0000 0.0000 25.5267 11.3554 -23.1999 -3.8265 -11.9259 35.4702 -0.2326 12.5698 -11.6261 -0.0282 -1.0839 2.9797 2.7029 2.1410 1.5217 2.1009 2.9839 -1.7544 0.5335 1.4587 -2.6299 -2.2732 -1.9159 -9.2220 1.8507 -2.5143 12.8577 0.7652 -1.2052 5.4435 0.0000 0.0000 0.0000 -90.6045 1.3535 33.0983 16.9989 -26.8564 -4.0869 -0.0000 0.0000 -16.4603 20.8987 -10.5602 -4.0030 -7.1250 0.0000 -0.0000 -4.3488 18.7127 2.7316 0.0000 0.0000 0.0000 92.5275 -4.3901 2.2197 -10.6407 17.7354 -1.6648 0.0000 0.0000 6.7248 -28.8095 -34.7763 17.4160 7.1250 -0.0000 -0.0000 6.0032 -68.2882 -3.3611
8.8686 16.3484 -2.1938 -1.6915 1.1295 6.0647 0.0000 0.0000 0.0000 -17.6942 -3.8265 -25.1171 13.1493 18.8354 69.5886 -0.0485 4.2226 -3.2535 0.0572 -1.5437 -4.2463 0.0000 0.0000 0.0000 25.4496 10.6401 -22.1793 -3.7096 -11.7635 34.9005 -0.2245 13.2761 -11.9120 -0.0660 -1.6580 4.5614 2.4390 2.2241 1.3679 1.9331 3.0750 -1.6831 0.5131 1.5094 -2.4731 -2.3236 -1.9921 -9.4492 1.9811 -2.6279 13.1318 0.8028 -1.2518 5.5726 0.0000 0.0000 0.0000 -90.7214 2.3494 32.1751 15.8804 -25.3582 -3.5946 -0.0000 0.0000 -15.1355 20.9007 -10.3520 -3.9256 -7.1250 0.0000 -0.0000 -4.3427 18.9337 2.7064 0.0000 0.0000 0.0000 92.1858 -2.8387 5.0527 -11.3013 18.7486 -1.8716 0.0000 0.0000 5.1277 -28.4781 -34.2698 16.9856 7.1250 -0.0000 -0.0000 6.0453 -67.6711 -3.3000
8.8722 16.3331 -1.9703 -2.8174 0.8835 6.0378 0.0000 0.0000 0.0000 -16.1485 -3.8058 -27.3808 13.1032 18.8191 69.4456 -0.0158 3.3978 -3.9632 0.2689 -3.3358 -9.2151 0.0000 0.0000 0.0000 26.9360 10.6827 -20.9022 -3.5767 -11.5747 34.2436 -0.2238 13.6738 -12.1201 -0.1178 -2.2125 6.0933 3.4157 2.3783 1.6391 2.1707 3.3250 -1.6906 0.1938 1.6162 -2.5924 -2.5146 -1.9239 -9.3818 2.4041 -2.5687 13.1180 0.9719 -1.2025 5.5633 -0.0000 -0.0000 0.0000 -90.7620 3.1642 31.2548 14.4708 -23.4037 -3.0126 -0.0000 0.0000 -13.8532 21.6576 -10.7166 -4.2230 -7.1250 0.0000 -0.0000 -3.8166 18.4848 2.4150 -0.0000 -0.0000 0.0000 91.8034 -1.6684 8.8948 -12.1802 20.0744 -2.1638 0.0000 0.0000 1.6028 -30.0929 -33.0579 17.5426 7.1250 -0.0000 -0.0000 2.9883 -66.9090 -1.5775
8.8970 16.3562 -1.6851 -2.8617 0.6438 5.7423 0.0000 0.0000 0.0000 -16.1593 -3.8103 -28.3558 12.8016 18.7094 68.5082 0.0548 2.1484 -5.7548 0.5934 -4.9316 -13.7136 0.0000 0.0000 0.0000 27.1532 9.5905 -19.3332 -3.4517 -11.3927 33.6161 -0.1234 15.1080 -11.9202 -0.1795 -2.7289 7.5250 3.6899 2.4979 1.4626 2.0058 3.4742 -1.6016 -0.1211 1.6878 -2.3722 -2.5240 -1.9432 -8.9007 2.6513 -2.6369 13.0061 1.0500 -1.2227 5.4514 -0.0000 -0.0000 0.0000 -90.6815 4.2795 29.8447 13.0859 -21.4130 -2.4846 -0.0000 0.0000 -12.1582 21.7190 -11.1049 -4.3872 -7.1250 0.0000 -0.0000 -3.7851 18.0652 2.4301 -0.0000 -0.0000 0.0000 91.5518 -1.0774 12.8368 -13.3031 21.7297 -2.5644 0.0000 -0.0000 -3.2438 -32.6457 -30.7226 18.1231 7.1250 -0.0000 -0.0000 -1.7303 -65.1859 0.8445
8.9081 16.3640 -1.4241 -3.2658 0.4385 5.8030 0.0000 0.0000 0.0000 -15.6185 -4.0644 -29.9010 12.4466 18.5731 67.3975 0.1575 0.5151 -7.7012 0.9314 -6.1477 -17.2137 0.0000 0.0000 0.0000 27.7299 9.0113 -18.1650 -3.3280 -11.2080 32.9846 -0.0671 15.9814 -11.9137 -0.2216 -3.0304 8.3635 4.0802 2.6438 1.4546 2.0237 3.6886 -1.8272 -0.3311 1.7821 -2.5724 -2.6166 -2.0734 -8.3759 2.7296 -2.8230 13.0481 1.0806 -1.3166 5.3826 0.0000 0.0000 0.0000 -90.8500 5.6656 27.2576 11.9150 -19.6770 -2.0736 -0.0000 0.0000 -9.1516 21.0125 -11.3369 -4.3181 -7.1250 0.0000 -0.0000 -4.2884 17.8787 2.7726 0.0000 0.0000 0.0000 91.1371 -0.5932 15.9094 -14.5675 23.5402 -3.0511 0.0000 -0.0000 -6.7127 -34.6140 -30.4798 19.2952 7.1250 -0.0000 -0.0000 -4.5243 -65.4972 2.2425
8.9143 16.3563 -1.1814 -3.7699 0.2848 5.9613 0.0000 0.0000 0.0000 -14.8781 -4.5203 -31.5757 11.9727 18.3791 65.9024 0.2390 -0.2841 -9.1371 1.3321 -7.3085 -20.6325 0.0000 0.0000 0.0000 28.4287 8.6357 -17.1524 -3.2349 -11.0659 32.5024 -0.0553 16.6499 -12.2451 -0.2488 -3.2094 8.8622 4.4166 2.7295 1.5443 2.1596 3.8295 -2.0045 -0.3920 1.8410 -2.7903 -2.6968 -2.0905 -8.3286 2.6750 -2.8319 13.2255 1.0762 -1.3284 5.4304 -0.0000 0.0000 0.0000 -91.1733 6.7189 24.2068 10.7465 -17.8987 -1.6972 -0.0000 0.0000 -5.8896 20.7058 -11.4338 -4.2852 -7.1250 0.0000 -0.0000 -4.5062 17.8021 2.9219 -0.0000 0.0000 0.0000 90.5494 0.1794 18.5153 -15.8734 25.3487 -3.5916 0.0000 -0.0000 -9.0104 -35.5030 -31.4649 20.4235 7.1250 -0.0000 -0.0000 -5.4366 -66.8377 2.8635
8.9289 16.3504 -0.9304 -4.1957 0.2364 6.1045 0.0000 0.0000 0.0000 -14.2369 -5.0681 -33.0254 11.4084 18.1292 64.1008 0.3306 -0.3771 -10.7344 1.6389 -8.0695 -22.9252 0.0000 0.0000 0.0000 28.9903 7.6174 -16.2885 -3.1538 -10.9400 32.0778 -0.0230 17.5636 -12.5644 -0.2275 -3.0703 8.4747 4.9175 2.7784 1.4044 2.1500 3.9011 -2.0536 -0.6743 1.8666 -2.7275 -2.5712 -2.0904 -8.6342 2.6097 -2.8407 13.5894 1.0309 -1.3272 5.5936 -0.0000 0.0000 0.0000 -91.2413 7.5407 21.1527 9.5551 -16.0406 -1.3494 -0.0000 0.0000 -2.8206 20.3096 -11.3265 -4.1574 -7.1250 0.0000 -0.0000 -4.7815 17.9487 3.0861 -0.0000 0.0000 0.0000 90.1071 1.2495 20.1468 -17.0821 26.9659 -4.1245 0.0000 -0.0000 -9.6143 -33.9489 -32.9363 20.1042 7.1250 -0.0000 -0.0000 -2.5197 -67.9522 1.3899
8.9489 16.3482 -0.6662 -4.3498 0.0991 6.2669 0.0000 0.0000 0.0000 -14.0050 -5.5153 -34.1363 10.7293 17.8001 61.8995 0.3007 0.2175 -10.4386 0.8489 -5.8765 -16.4265 0.0000 0.0000 0.0000 29.1933 6.0788 -15.6903 -3.0745 -10.8146 31.6572 0.0387 18.4696 -12.6391 -0.1847 -2.7682 7.6342 5.2786 2.9233 1.0928 1.9915 4.0778 -2.0749 -1.0233 1.9496 -2.5307 -2.5455 -2.1042 -8.7015 2.8780 -2.9032 13.6841 1.1054 -1.3361 5.6398 0.0000 0.0000 0.0000 -91.1377 8.2934 17.6270 8.4176 -14.2274 -1.0524 -0.0000 -0.0000 1.0249 19.4976 -10.9625 -3.8521 -7.1250 0.0000 -0.0000 -5.3455 18.3970 3.4001 0.0000 0.0000 0.0000 89.7522 2.3865 20.6031 -18.3646 28.6215 -4.7226 0.0000 -0.0000 -8.1417 -30.4320 -36.3305 19.1893 7.1250 -0.0000 -0.0000 5.0542 -70.3816 -3.0664
8.9641 16.3440 -0.3999 -4.4105 -0.1892 6.3894 0.0000 0.0000 0.0000 -13.8694 -5.8554 -35.0592 9.9600 17.3873 59.3546 0.3331 0.3607 -11.0393 0.6598 -5.1950 -14.4657 0.0000 0.0000 0.0000 29.2919 4.7028 -15.0877 -2.9951 -10.6871 31.2318 0.1450 19.4522 -12.4153 -0.2063 -2.9244 8.0683 5.4087 3.1108 0.8686 1.8394 4.3123 -2.1160 -1.2433 2.0647 -2.4136 -2.4792 -2.0657 -8.5335 3.1838 -2.9063 13.5904 1.1920 -1.3144 5.5853 0.0000 -0.0000 0.0000 -90.9711 9.0596 13.3246 7.3499 -12.4937 -0.8056 -0.0000 -0.0000 5.9863 19.1175 -10.7379 -3.6951 -7.1250 0.0000 -0.0000 -5.6106 18.6617 3.5373 0.0000 -0.0000 0.0000 89.4563 3.3637 21.3063 -19.7129 30.2950 -5.3858 0.0000 -0.0000 -7.7489 -28.0212 -37.6967 18.0260 7.1250 -0.0000 -0.0000 9.9645 -70.9545 -6.1870
8.9766 16.3431 -0.1340 -4.5245 -0.4585 6.5191 0.0000 0.0000 0.0000 -13.6499 -6.2732 -35.8446 9.1225 16.8859 56.5127 0.3837 0.4324 -11.8662 0.5669 -4.8222 -13.4022 0.0000 0.0000 0.0000 29.4312 3.4595 -14.3713 -2.9046 -10.5390 30.7405 0.2936 20.5601 -11.9806 -0.2197 -3.0173 8.3268 5.5367 3.2691 0.6439 1.7004 4.5063 -2.1291 -1.4451 2.1611 -2.2688 -2.1990 -2.1259 -8.6851 3.1001 -3.0175 13.7393 1.1097 -1.3577 5.6556 -0.0000 0.0000 0.0000 -90.7550 9.9812 8.4791 6.5521 -11.1797 -0.6420 -0.0000 -0.0000 11.4998 18.6561 -10.3961 -3.4865 -7.1250 0.0000 -0.0000 -5.9339 19.0528 3.6915 -0.0000 0.0000 0.0000 89.2048 4.4084 22.5300 -21.0263 31.8590 -6.0638 0.0000 -0.0000 -8.8730 -27.6142 -36.3758 17.2360 7.1250 -0.0000 -0.0000 9.1092 -69.5203 -5.3621
